<svg version="1.2" xmlns="http://www.w3.org/2000/svg" viewBox="0 0 1581 1404" width="1581" height="1404">
	<title>ALRM_BIG copy-svg</title>
	<style>
		.s0 { fill: #ffffff } 
	</style>
	<g id="Page-1">
		<g id="01---IR-Landing">
			<g id="ADCLogo">
				<g id="Group">
					<path id="Path" class="s0" d="m828.3 380c-21.7-21.7-57.2-21.7-78.8 0l-514.6 553.6 219.6-39.9c0 0 237.3-245.8 287.8-300.2 17.8-18.3 32.2-21.6 46.6-21.6 14.4 0 32.2 3.3 46.6 21.6 50.4 50.5 287.8 300.2 287.8 300.2l219.6 39.9z"/>
					<path id="Shape" fill-rule="evenodd" class="s0" d="m1551.9 1005.7c-36 61.6-100.9 101.5-104.8 101.5-7.2 0-24.9 10.6-49.9 25-122.5 65.4-410.3 220.8-500.2 253.5-36 10.5-72.1 17.7-104.8 17.7h-3.3c-36.1 0-68.2-7.2-104.3-17.7-93.7-32.7-378.2-188.1-500.2-253.5-25.5-14.4-43.2-21.6-47.1-25 0-3.9-64.3-39.9-104.3-104.8-36-58.3-32.1-127.1-32.1-130.4v-343.9c0 0 0-68.2 28.8-129.8 36.1-61.6 100.9-101.5 104.3-101.5 7.2 0 24.9-10.6 50.4-25 122-65.5 410.4-220.8 500.2-253.5 36.1-10.5 72.1-17.8 104.3-17.8h3.3c36.1 0 68.8 7.3 104.8 17.8 89.9 32.7 377.7 188 500.2 253.5 25 14.4 42.7 25 46.6 25 0 3.9 64.9 39.9 104.3 104.8 32.7 58.3 32.7 123.2 32.7 130.4v343.3c0 0 3.3 68.8-28.9 130.4zm-21.6-473.7c0 0 0-54.4-25.5-97.7-32.2-47.1-82.6-83.2-85.9-83.2 0 0-7.3-3.9-14.5-7.2-277.2-152-464.1-245.7-525.7-267.9-28.8-10.6-57.6-14.4-86.5-14.4h-10.5c-28.9 0-57.7 3.8-86.5 14.4-61 22.2-247.9 115.9-525.2 267.9-7.2 3.3-11.1 7.2-14.4 7.2-7.2 7.2-57.7 40-82.6 83.2-25.5 40-25.5 93.8-25.5 97.7v343.3c0 3.9 0 58.3 25.5 97.7 32.1 51 82.6 83.2 85.9 83.2 0 0 7.2 3.9 14.4 7.2 277.3 152 464.2 246.3 525.8 267.9 28.8 10.6 57.6 14.5 85.9 14.5h3.9c28.8 0 57.7-3.9 86.5-14.5 46.6-14.4 172.5-76 525.2-267.9 11-3.3 14.4-7.2 18.3-7.2 7.2-7.2 57.1-39.4 82.6-83.2 24.9-39.4 24.9-93.8 24.9-97.7z"/>
					<path id="Oval" class="s0" d="m1177.6 535.9c-47.8 0-86.5-38.8-86.5-86.9 0-48 38.7-86.8 86.5-86.8 47.9 0 86.5 38.8 86.5 86.8 0 48.1-38.6 86.9-86.5 86.9z"/>
				</g>
			</g>
		</g>
	</g>
</svg>