<svg version="1.2" xmlns="http://www.w3.org/2000/svg" viewBox="0 0 1566 254" width="1566" height="254">
	<title>alarm-logo-svg</title>
	<style>
		.s0 { fill: #fff } 
		.s1 { fill: #fff } 
		.s2 { fill: #fff } 
	</style>
	<g id="Page-1">
		<g id="01---IR-Landing">
			<g id="ADCLogo">
				<path id="Shape" fill-rule="evenodd" class="s0" d="m449.1 171.8h-22.7c-2.6-0.7-3.9-2.6-3.9-2.6 0 0-5.9-11.1-6.5-12.4-2-2.6-4.6-2-4.6-2h-54.5c0 0-2.6 0-4.5 2-0.7 1.3-6.5 12.4-6.5 12.4 0 0-1.3 1.9-3.9 2.6h-22.7c0 0-6.5 0.6-4.5-5.2 1.3-2.6 49.3-89.4 49.3-89.4 0 0 1.3-2.6 3.9-2.6h31.1c3.3 0 4.6 2.6 4.6 2.6 0 0 48 86.1 49.3 89.4 1.3 5.2-5.2 5.2-3.9 5.2zm-47.4-43.1c-1.3-2.6-14.3-28-14.3-28 0 0-1.3-1.3-2.6-1.3-1.3 0-2.6 1.3-2.6 1.3 0 0-12.9 25.4-14.2 28-2 3.3 0.6 3.3 0.6 3.3h31.2c0 0 2.6 0 1.9-3.3z"/>
				<path id="Path" class="s0" d="m471.8 171.8c-2.6 0-5.2-2-5.2-5.2v-87.4c0-2.6 2.6-5.2 5.2-5.2h19.5c2.5 0 5.1 2.6 5.1 5.2v63.9c0 2.6 2.6 5.2 5.2 5.2h54.5c2.6 0 5.2 2.6 5.2 5.2v13.7c0 2.6-2.6 5.2-5.2 5.2h-84.3z"/>
				<path id="Shape" fill-rule="evenodd" class="s0" d="m708 171.8h-22.7c-2.6-0.7-3.9-2.6-3.9-2.6 0 0-5.9-11.1-6.5-12.4-2-2.6-4.6-2-4.6-2h-54.5c0 0-2.6 0-4.5 2-0.7 1.3-6.5 12.4-6.5 12.4 0 0-1.3 1.9-3.9 2.6h-22.7c0 0-6.5 0.6-4.5-5.2 1.3-2.6 49.3-89.4 49.3-89.4 0 0 1.9-2.6 4.5-2.6h30.5c3.3 0 4.6 2.6 4.6 2.6 0 0 48 86.1 49.3 89.4 1.9 5.2-4.6 5.2-3.9 5.2zm-47.4-43.1c-1.3-2.6-14.3-28-14.3-28 0 0-1.3-1.3-2.6-1.3-1.3 0-2.6 1.3-2.6 1.3 0 0-12.9 25.4-14.2 28-2 3.3 0.6 3.3 0.6 3.3h31.8c0 0 2.6 0 1.3-3.3z"/>
				<path id="Shape" fill-rule="evenodd" class="s0" d="m834.5 132.7h-8.4c10.4 0 18.8 8.4 18.8 18.9v15c0 3.2-2.6 5.2-5.2 5.2h-19.5c-2.6 0-5.2-2.6-5.2-5.2v-14.4c0-3.2-2.5-5.2-5.1-5.2h-49.4c-3.2 0-5.2 2.6-5.2 5.2v14.4c0 3.2-2.5 5.2-5.1 5.2h-19.5c-2.6 0-5.2-2.6-5.2-5.2v-87.4c0-2.6 2.6-5.2 5.2-5.2h94.7c10.4 0 18.8 8.5 18.8 18.9v30c0 5.8-4.5 10.4-9.7 9.8zm-78.5-14.8c0 2.7 2.2 5 5 5h47.7c2.8 0 5-2.3 5-5v-12.8c0-2.8-2.2-5-5-5h-47.7c-2.8 0-5 2.2-5 5z"/>
				<path id="Path" class="s0" d="m1018.1 74.6h-18.1-3.3-16.2c0 0-11-0.6-16.2 12.4l-16.9 39.1c0 0-2.6 7.2-4.5 7.2-2 0-4.6-7.2-4.6-7.2l-16.8-39.1c-5.9-13-16.3-12.4-16.3-12.4h-16.2-3.2-18.2c-2.6 0-5.2 2-5.2 5.2v86.8c0 2.6 2 5.2 5.2 5.2h21.4c2.6 0 5.2-2 5.2-5.2v-62.6c0-5.2 3.9 1.3 3.9 1.3l29.2 56.7c5.2 10.4 9.7 10.4 9.7 10.4h7.2 7.1c0 0 3.9 0 9.7-10.4l29.2-56.7c0 0 3.9-6.5 3.9-1.3v62.6c0 2.6 2 5.2 5.2 5.2h21.4c2.6 0 5.2-2 5.2-5.2v-87.4c-2.6-2.6-4.5-4.6-7.8-4.6z"/>
				<path id="Shape" fill-rule="evenodd" class="s0" d="m1351.7 96.8v52.8c0 12.4-9.8 22.8-22.1 22.8h-88.2c-12.4-0.6-22.1-10.4-22.1-22.8v-52.8c0.7-12.4 10.4-22.2 22.7-22.2h87c12.3 0 22 9.8 22.7 22.2zm-100.6 37.5c0 7.7 6.2 14 14 14h40.8c7.7 0 14-6.3 14-14v-21.5c0-7.8-6.3-14-14-14h-40.8c-7.8 0-14 6.2-14 14z"/>
				<path id="Path" class="s0" d="m1521 74.6h-18.1-3.3-16.2c0 0-11-0.6-16.2 12.4l-16.9 39.1c0 0-2.6 7.2-4.5 7.2-2 0-4.6-7.2-4.6-7.2l-16.8-39.1c-5.9-13-16.3-12.4-16.3-12.4h-16.2-3.2-18.2c-2.6 0-5.2 2-5.2 5.2v86.8c0 2.6 1.9 5.2 5.2 5.2h21.4c2.6 0 5.2-2 5.2-5.2v-62.6c0-5.2 3.9 1.3 3.9 1.3l29.2 56.7c5.2 10.4 9.7 10.4 9.7 10.4h7.2 7.1c0 0 3.9 0 9.7-10.4l29.2-56.7c0 0 3.9-6.5 3.9-1.3v62.6c0 2.6 2 5.2 5.2 5.2h21.4c2.6 0 5.2-2 5.2-5.2v-87.4c-2.6-2.6-4.5-4.6-7.8-4.6z"/>
				<path id="Path" class="s1" d="m1052.5 171.1c-8.6 0-15.5-7-15.5-15.6 0-8.7 6.9-15.7 15.5-15.7 8.7 0 15.6 7 15.6 15.7 0 8.6-6.9 15.6-15.6 15.6z"/>
				<path id="Path" class="s0" d="m1110.3 106.6c0-8.5 13.6-9.1 13.6-9.1 0 0 34.4 0 42.2 0 7.8 0 8.4 5.2 10.4 9.1 1.9 3.9 4.5 3.9 4.5 3.9 0 0 11.7 0 18.2 0 6.5 0 5.8-9.1 5.8-9.1 0 0 0 0 0-11.1 0-16.3-27.9-16.3-27.9-16.3 0 0-45.4 0-71.4 0-25.9 0-25.9 29.3-25.9 29.3v39.1c0 0 0 29.4 25.9 29.4 26 0 71.4 0 71.4 0 0 0 27.9 0 27.9-16.3 0-11.1 0-11.1 0-11.1 0 0 0.7-9.1-5.8-9.1-5.9 0-18.2 0-18.2 0 0 0-2.6-0.7-4.5 3.9-2 3.9-2.6 9.1-10.4 9.1-7.8 0-42.2 0-42.2 0 0 0-13.6 0-13.6-9.1z"/>
				<path id="Shape" fill-rule="evenodd" class="s2" d="m1550.2 105.3c-8.6 0-15.5-7-15.5-15.7 0-8.6 6.9-15.6 15.5-15.6 8.6 0 15.6 7 15.6 15.6 0 8.7-7 15.7-15.6 15.7zm13-15.7c0-6.8-5.5-12.4-12.3-12.4-6.8 0-12.3 5.6-12.3 12.4 0 6.9 5.5 12.4 12.3 12.4 6.8 0 12.3-5.5 12.3-12.4zm-11.7-7.1c3.3 0 5.9 1.9 5.9 4.5 0 2.6-2 3.9-4.6 4.6l5.2 5.9h-3.2l-4.6-5.9h-1.9v5.2h-3.3v-15h6.5zm-3.9 6.5h3.9c2 0 3.3-0.6 3.3-2.6 0-1.3-1.3-2.6-3.3-2.6h-3.9z"/>
				<g id="Group">
					<path id="Path" class="s1" d="m149.9 69.4c-3.9-3.9-10.3-3.9-14.2 0l-92.8 99.8 39.6-7.2c0 0 42.8-44.3 51.9-54.1 3.2-3.3 5.8-3.9 8.4-3.9 2.6 0 5.8 0.6 8.4 3.9 9.1 9.1 51.9 54.1 51.9 54.1l39.6 7.2z"/>
					<path id="Shape" fill-rule="evenodd" class="s0" d="m280.4 182.2c-6.5 11.1-18.2 18.3-18.9 18.3-1.3 0-4.5 1.9-9 4.5-22.1 11.8-74 39.8-90.2 45.7-6.5 1.9-13 3.2-18.9 3.2h-0.6c-6.5 0-12.3-1.3-18.8-3.2-16.9-5.9-68.2-33.9-90.2-45.7-4.6-2.6-7.8-3.9-8.5-4.5 0-0.7-11.6-7.2-18.8-18.9-6.5-10.5-5.8-22.9-5.8-23.5v-62c0 0 0-12.3 5.2-23.4 6.5-11.1 18.2-18.3 18.8-18.3 1.3 0 4.5-1.9 9.1-4.5 22-11.8 74-39.8 90.2-45.7 6.5-1.9 13-3.2 18.8-3.2h0.6c6.5 0 12.4 1.3 18.9 3.2 16.2 5.9 68.1 33.9 90.2 45.7 4.5 2.6 7.7 4.5 8.4 4.5 0 0.7 11.7 7.2 18.8 18.9 5.9 10.5 5.9 22.2 5.9 23.5v61.9c0 0 0.6 12.4-5.2 23.5zm-3.9-85.4c0 0 0-9.8-4.6-17.6-5.8-8.5-14.9-15-15.5-15 0 0-1.3-0.7-2.6-1.3-50-27.4-83.7-44.3-94.8-48.3-5.2-1.9-10.4-2.6-15.6-2.6h-1.9c-5.2 0-10.4 0.7-15.6 2.6-11 4-44.7 20.9-94.7 48.3-1.3 0.6-2 1.3-2.6 1.3-1.3 1.3-10.4 7.2-14.9 15-4.6 7.2-4.6 16.9-4.6 17.6v61.9c0 0.7 0 10.5 4.6 17.6 5.8 9.2 14.9 15 15.5 15 0 0 1.3 0.7 2.6 1.3 50 27.4 83.7 44.4 94.8 48.3 5.2 1.9 10.4 2.6 15.5 2.6h0.7c5.2 0 10.4-0.7 15.6-2.6 8.4-2.6 31.1-13.7 94.7-48.3 2-0.6 2.6-1.3 3.3-1.3 1.3-1.3 10.3-7.1 14.9-15 4.5-7.1 4.5-16.9 4.5-17.6z"/>
					<path id="Oval" class="s1" d="m212.9 97.5c-8.6 0-15.6-7-15.6-15.7 0-8.7 7-15.6 15.6-15.6 8.6 0 15.6 6.9 15.6 15.6 0 8.7-7 15.7-15.6 15.7z"/>
				</g>
			</g>
		</g>
	</g>
</svg>